<svg width="77" height="77" viewBox="0 0 77 77" fill="none" xmlns="http://www.w3.org/2000/svg">
<circle cx="38.3529" cy="38.3529" r="38.3529" fill="url(#paint0_linear_21_2)"/>
<path d="M55.4539 16H22.5461C18.8308 16 16 18.7692 16 22.4038V54.5962C16 58.2308 18.8308 61 22.5461 61H55.4539C59.1692 61 62 58.2308 62 54.5962V22.4038C62 18.7692 59.1692 16 55.4539 16ZM39 52C46.6077 52 52.8 46.1154 52.8 39.0192C52.8 37.8077 52.6231 36.4231 52.2692 35.3846H56.1615V53.7308C56.1615 54.5962 55.4538 55.4615 54.3923 55.4615H23.6077C22.7231 55.4615 21.8385 54.7692 21.8385 53.7308V35.2115H25.9077C25.5539 36.4231 25.3769 37.6346 25.3769 38.8462C25.2 46.1154 31.3923 52 39 52ZM39 46.8077C34.0462 46.8077 30.1538 43 30.1538 38.3269C30.1538 33.6538 34.0462 29.8462 39 29.8462C43.9538 29.8462 47.8462 33.6538 47.8462 38.3269C47.8462 43.1731 43.9538 46.8077 39 46.8077ZM55.9846 28.2885C55.9846 29.3269 55.1 30.1923 54.0385 30.1923H49.0846C48.0231 30.1923 47.1385 29.3269 47.1385 28.2885V23.6154C47.1385 22.5769 48.0231 21.7115 49.0846 21.7115H54.0385C55.1 21.7115 55.9846 22.5769 55.9846 23.6154V28.2885Z" fill="white"/>
<defs>
<linearGradient id="paint0_linear_21_2" x1="16.3" y1="68.0765" x2="67.1176" y2="15.3412" gradientUnits="userSpaceOnUse">
<stop stop-color="#EEA054"/>
<stop offset="0.502762" stop-color="#D64763"/>
<stop offset="1" stop-color="#B62A99"/>
</linearGradient>
</defs>
</svg>
