<svg width="77" height="77" viewBox="0 0 77 77" fill="none" xmlns="http://www.w3.org/2000/svg">
<circle cx="38.3529" cy="38.3529" r="38.3529" fill="#7C509A"/>
<path d="M50.3458 20.2233C43.0367 18.8275 35.4464 18.8275 28.1372 20.2233C24.9044 20.9212 20.8281 24.8295 20.1253 27.9004C18.8603 33.9024 18.8603 40.0441 20.1253 46.0461C20.9687 49.1169 25.0449 53.0252 28.1372 53.7232C28.2778 53.7232 28.4184 53.8627 28.4184 54.0023V62.796C28.4184 63.2148 28.9806 63.4939 29.2617 63.0752L33.4785 58.7481C33.4785 58.7481 36.852 55.2586 37.4142 54.7002C37.4142 54.7002 37.5548 54.5607 37.6954 54.5607C41.9122 54.7002 46.2696 54.2815 50.4864 53.5836C53.7193 52.8857 57.7955 48.9773 58.4983 45.9065C59.7634 39.9045 59.7634 33.7628 58.4983 27.7608C57.655 24.8295 53.5787 20.9212 50.3458 20.2233ZM50.4864 46.4649C49.7836 47.8607 48.9402 48.9773 47.5346 49.6753C47.1129 49.8148 46.6912 49.9544 46.2696 50.094C45.7073 49.9544 45.2856 49.8148 44.8639 49.6753C40.366 47.8607 36.1492 45.3482 32.7757 41.719C30.9485 39.6253 29.4023 37.2524 28.1372 34.7399C27.575 33.4837 27.0128 32.367 26.5911 31.1108C26.1694 29.9941 26.8722 28.8774 27.575 28.04C28.2778 27.2025 29.1212 26.6441 30.1051 26.2254C30.8079 25.8066 31.5107 26.0858 32.0729 26.6441C33.1974 28.04 34.3219 29.4358 35.1653 30.9712C35.7275 31.9483 35.5869 33.0649 34.603 33.7628C34.3219 33.9024 34.1813 34.042 33.9002 34.3212C33.7597 34.4608 33.4785 34.6003 33.338 34.8795C33.0569 35.2982 33.0569 35.717 33.1974 36.1357C34.3219 39.3461 36.4303 41.8586 39.6632 43.2545C40.2254 43.5336 40.6471 43.6732 41.3499 43.6732C42.3339 43.5336 42.7555 42.417 43.4583 41.8586C44.1611 41.3003 45.0045 41.3003 45.8479 41.719C46.5507 42.1378 47.2535 42.6961 48.0968 43.2545C48.7996 43.8128 49.5024 44.2315 50.2052 44.7899C50.6269 45.069 50.7675 45.7669 50.4864 46.4649ZM44.5828 35.9962C44.3017 35.9962 44.4423 35.9962 44.5828 35.9962C44.0206 35.9962 43.88 35.717 43.7395 35.2982C43.7395 35.0191 43.7395 34.6003 43.5989 34.3212C43.4583 33.7628 43.1772 33.2045 42.615 32.7858C42.3339 32.6462 42.0527 32.5066 41.7716 32.367C41.3499 32.2274 41.0688 32.2274 40.6471 32.2274C40.2255 32.0878 40.0849 31.8087 40.0849 31.3899C40.0849 31.1108 40.5066 30.8316 40.7877 30.8316C43.0367 30.9712 44.7234 32.2274 45.0045 34.8795C45.0045 35.0191 45.0045 35.2982 45.0045 35.4378C45.0045 35.717 44.8639 35.9962 44.5828 35.9962ZM43.1772 29.8545C42.4744 29.5754 41.7716 29.2962 40.9282 29.1566C40.6471 29.1566 40.2255 29.017 39.9443 29.017C39.5226 29.017 39.2415 28.7379 39.3821 28.3191C39.3821 27.9004 39.6632 27.6212 40.0849 27.7608C41.4905 27.9004 42.7555 28.1795 44.0206 28.7379C46.5507 29.9941 47.9563 32.0878 48.378 34.8795C48.378 35.0191 48.378 35.1587 48.378 35.2982C48.378 35.5774 48.378 35.8566 48.378 36.2753C48.378 36.4149 48.378 36.5545 48.378 36.6941C48.2374 37.2524 47.2535 37.392 47.1129 36.6941C47.1129 36.5545 46.9724 36.2753 46.9724 36.1357C46.9724 34.8795 46.6912 33.6233 46.129 32.5066C45.2856 31.2503 44.3017 30.4129 43.1772 29.8545ZM50.7675 38.2295C50.3458 38.2295 50.0647 37.8107 50.0647 37.392C50.0647 36.5545 49.9241 35.717 49.7836 34.8795C49.2213 30.4129 45.5668 26.7837 41.2094 26.0858C40.5066 25.9462 39.8038 25.9462 39.2415 25.8066C38.8198 25.8066 38.2576 25.8066 38.117 25.2483C37.9765 24.8295 38.3982 24.4108 38.8198 24.4108C38.9604 24.4108 39.101 24.4108 39.101 24.4108C44.864 24.5504 39.3821 24.4108 39.101 24.4108C45.0045 24.5504 49.9241 28.4587 50.908 34.3212C51.0486 35.2982 51.1892 36.2753 51.1892 37.392C51.4703 37.8107 51.1892 38.2295 50.7675 38.2295Z" fill="white"/>
</svg>
