<svg width="78" height="78" viewBox="0 0 78 78" fill="none" xmlns="http://www.w3.org/2000/svg">
<circle cx="38.7648" cy="39.0588" r="38.3529" fill="#7294C7"/>
<path d="M61.5541 52.0205C61.5541 51.8219 61.3632 51.8219 61.3632 51.6233C60.5992 50.0342 58.8804 48.048 56.5886 45.863C55.4428 44.8699 54.8698 44.0753 54.4878 43.6781C53.9149 42.8836 53.9149 42.2877 54.1059 41.4932C54.2969 40.8973 55.0608 39.9041 56.3977 38.1164C57.1616 37.1233 57.5435 36.5274 58.1165 35.9315C60.9812 31.9589 62.318 29.3767 61.9361 28.1849L61.7451 27.9863C61.5542 27.7877 61.3631 27.589 60.9812 27.589C60.5992 27.3904 60.0263 27.3904 59.4534 27.589H52.1961C52.0051 27.589 52.0051 27.589 51.6231 27.589C51.4322 27.589 51.2412 27.589 51.2412 27.589H51.0502H50.8592L50.6682 27.7877C50.4773 27.9863 50.4772 27.9863 50.4772 28.1849C49.7133 30.3698 48.7584 32.1575 47.8035 34.1438C47.2306 35.137 46.6577 36.1301 46.0847 36.9247C45.5118 37.7192 45.1298 38.3151 44.7478 38.7123C44.3659 39.1096 43.9839 39.3082 43.7929 39.7055C43.602 39.9041 43.22 40.1027 43.22 39.9041C43.029 39.9041 42.838 39.9041 42.838 39.7055C42.647 39.5068 42.4561 39.3082 42.2651 39.1096C42.0741 38.9109 42.0741 38.5137 41.8831 38.1164C41.8831 37.7192 41.8831 37.3219 41.8831 37.1233C41.8831 36.9246 41.8831 36.3288 41.8831 35.9315C41.8831 35.3356 41.8831 34.9383 41.8831 34.7397C41.8831 34.1438 41.8831 33.3493 41.8831 32.5548C41.8831 31.7603 41.8831 31.1644 41.8831 30.7671C41.8831 30.3699 41.8831 29.774 41.8831 29.3767C41.8831 28.7808 41.8831 28.3835 41.8831 28.1849C41.8831 27.9863 41.6922 27.589 41.6922 27.3904C41.5012 27.1918 41.3102 26.9931 41.1192 26.7945C40.9282 26.5959 40.5463 26.5959 40.3553 26.3973C39.4004 26.1986 38.2545 26 36.9177 26C33.862 26 31.7612 26.1986 30.9973 26.5959C30.6153 26.7945 30.2334 26.9931 30.0424 27.3904C29.6604 27.7877 29.6604 27.9863 29.8514 27.9863C30.8063 28.1849 31.5702 28.5822 31.9522 29.1781L32.1432 29.5754C32.3342 29.774 32.3341 30.1712 32.5251 30.7671C32.7161 31.363 32.7161 31.9589 32.7161 32.7534C32.7161 33.9452 32.7161 35.137 32.7161 35.9315C32.7161 36.9247 32.5251 37.5205 32.5251 38.1164C32.5251 38.7123 32.3342 39.1096 32.1432 39.3082C31.9522 39.7055 31.9522 39.9041 31.7612 39.9041C31.7612 39.9041 31.7612 40.1027 31.5702 40.1027C31.3792 40.1027 31.1882 40.3014 30.8063 40.3014C30.6153 40.3014 30.2334 40.1027 30.0424 39.9041C29.6604 39.7055 29.2785 39.3082 29.0875 38.911C28.7055 38.5137 28.3235 37.9178 27.9416 37.1233C27.5596 36.3288 26.9867 35.5342 26.6047 34.3425L26.2228 33.548C26.0318 33.1507 25.6498 32.3562 25.2679 31.363C24.8859 30.3699 24.5039 29.5754 24.122 28.5822C23.931 28.1849 23.74 27.9863 23.5491 27.7877H23.3581C23.3581 27.7877 23.1671 27.589 22.9761 27.589C22.7851 27.589 22.5941 27.3904 22.4032 27.3904H15.5278C14.7639 27.3904 14.382 27.589 14.191 27.7877L14 27.9863C14 27.9863 14 28.1849 14 28.3836C14 28.5822 14 28.7808 14.191 29.1781C15.1459 31.5616 16.2918 33.9452 17.4377 36.3288C18.5835 38.5137 19.7294 40.5 20.4934 41.8904C21.4483 43.2808 22.2122 44.6712 23.1671 45.863C24.122 47.0548 24.6949 47.8493 24.8859 48.2466C25.2678 48.6438 25.4588 48.8425 25.6498 49.0411L26.2228 49.637C26.6047 50.0342 27.1777 50.6301 27.9416 51.226C28.7055 51.8219 29.6604 52.4178 30.6153 53.0137C31.5702 53.6096 32.7161 54.0069 33.862 54.4041C35.1988 54.8014 36.3447 55 37.4906 54.8014H40.3553C40.9282 54.8014 41.3102 54.6028 41.6922 54.2055L41.8831 54.0068C41.8831 53.8082 42.0741 53.8082 42.0741 53.6096C42.0741 53.411 42.0741 53.2123 42.0741 52.8151C42.0741 52.0206 42.0741 51.4247 42.2651 50.8288C42.4561 50.2329 42.4561 49.8356 42.6471 49.4384C42.8381 49.0411 43.029 48.8425 43.22 48.6438C43.411 48.4452 43.602 48.2466 43.602 48.2466H43.7929C44.1749 48.048 44.7479 48.2466 45.1298 48.6438C45.7028 49.0411 46.2757 49.637 46.6576 50.2329C47.0396 50.8288 47.6126 51.4247 48.3765 52.2192C49.1404 53.0137 49.7134 53.6096 50.0953 53.8082L50.6682 54.2055C51.0502 54.4041 51.4322 54.6028 52.0051 54.8014C52.5781 55 52.96 55 53.342 55L59.8353 54.8014C60.4083 54.8014 60.9812 54.6028 61.3632 54.4041C61.7451 54.2055 61.9361 54.0069 61.9361 53.6096C61.9361 53.411 61.9361 53.0137 61.9361 52.8151C61.5541 52.4178 61.5541 52.2192 61.5541 52.0205Z" fill="white"/>
</svg>
