<svg width="78" height="77" viewBox="0 0 78 77" fill="none" xmlns="http://www.w3.org/2000/svg">
<circle cx="38.7648" cy="38.3529" r="38.3529" fill="#48C95F"/>
<path d="M54.4146 22.5625C50.1812 18.3437 44.5366 16 38.5784 16C26.1916 16 16.1568 26 16.1568 38.3437C16.1568 42.25 17.2544 46.1562 19.1359 49.4375L16 61L27.9164 57.875C31.2091 59.5937 34.8153 60.5312 38.5784 60.5312C50.9652 60.5312 61 50.5313 61 38.1875C60.8432 32.4063 58.6481 26.7812 54.4146 22.5625ZM49.3972 46.3125C48.9268 47.5625 46.7317 48.8125 45.6341 48.9687C44.6934 49.125 43.439 49.125 42.1847 48.8125C41.4007 48.5 40.3031 48.1875 39.0488 47.5625C33.4042 45.2188 29.7979 39.5937 29.4843 39.125C29.1707 38.8125 27.1324 36.1562 27.1324 33.3437C27.1324 30.5312 28.5436 29.2812 29.0139 28.6562C29.4843 28.0312 30.1115 28.0312 30.5819 28.0312C30.8955 28.0312 31.3658 28.0312 31.6794 28.0312C31.993 28.0312 32.4634 27.875 32.9338 28.9687C33.4042 30.0625 34.5017 32.875 34.6585 33.0312C34.8153 33.3437 34.8153 33.6562 34.6585 33.9688C34.5017 34.2813 34.3449 34.5937 34.0314 34.9062C33.7178 35.2187 33.4042 35.6875 33.2474 35.8437C32.9338 36.1562 32.6202 36.4687 32.9338 36.9375C33.2474 37.5625 34.3449 39.2812 36.0697 40.8437C38.2648 42.7187 39.9895 43.3438 40.6167 43.6563C41.2439 43.9688 41.5575 43.8125 41.8711 43.5C42.1847 43.1875 43.2822 41.9375 43.5958 41.3125C43.9094 40.6875 44.3798 40.8437 44.8502 41C45.3206 41.1563 48.1429 42.5625 48.6132 42.875C49.2404 43.1875 49.554 43.3437 49.7108 43.5C49.8676 43.9687 49.8676 45.0625 49.3972 46.3125Z" fill="white"/>
</svg>
