<svg width="24" height="24" viewBox="0 0 27 24" fill="none" xmlns="http://www.w3.org/2000/svg">

<path d="M 8.63086 23.9995 V 13.5995 H 5 V 8.79951 H 8.63086 V 5.44951 C 8.63086 4.53285 8.76628 3.73285 9.03711 3.04951 C 9.32487 2.36618 9.71419 1.79951 10.2051 1.34951 C 10.7129 0.899512 11.3138 0.566178 12.0078 0.349512 C 12.7018 0.116178 13.4635 -0.000488281 14.293 -0.000488281 C 15.0716 -0.000488281 15.7741 0.0245117 16.4004 0.0745117 C 17.0267 0.107845 17.4329 0.141178 17.6191 0.174512 V 3.97451 H 15.334 C 14.4368 3.97451 13.8444 4.16618 13.5566 4.54951 C 13.2689 4.93285 13.125 5.43285 13.125 6.04951 V 8.79951 H 18 L 16.375 13.5995 H 13.125 V 23.9995 H 8.63086 Z" stroke="#4867AA" stroke-width="2"/>
</svg>
